<!DOCTYPE svg PUBLIC "-//W3C//DTD SVG 1.1//EN" "http://www.w3.org/Graphics/SVG/1.1/DTD/svg11.dtd">
<!-- Uploaded to: SVG Repo, www.svgrepo.com, Transformed by: SVG Repo Mixer Tools -->
<svg fill="#ffffff" version="1.1" id="Capa_1" xmlns="http://www.w3.org/2000/svg" xmlns:xlink="http://www.w3.org/1999/xlink" width="800px" height="800px" viewBox="0 0 423.901 423.901" xml:space="preserve">
<g id="SVGRepo_bgCarrier" stroke-width="0"/>
<g id="SVGRepo_tracerCarrier" stroke-linecap="round" stroke-linejoin="round"/>
<g id="SVGRepo_iconCarrier"> <g> <g> <path d="M202.076,60.711c-6.12-7.956-15.912-19.584-16.524-29.988c-0.612-5.508-4.284-6.732-7.344-6.12 c-0.612-1.224-1.836-1.836-3.06-1.836C3.788,32.559-80.056,367.936,121.292,386.295c-0.612,0.612-1.224,1.836-1.224,3.061 c0,9.792,0,18.972,0,28.764c0,3.672,3.672,6.732,7.344,5.508c31.212-11.016,51.408-33.66,72.216-58.14 c3.06-3.06,1.836-7.344-1.224-9.792c-17.748-12.852-35.496-25.092-51.408-39.78c-4.284-4.284-10.404-1.224-11.016,4.284 c-0.612,8.568-2.448,17.136-3.672,25.704c-61.2-3.061-83.844-66.096-81.396-121.176C53.36,144.555,129.86,98.043,197.18,73.563 c3.06-1.224,4.284-4.284,4.284-6.732C203.3,65.607,203.912,63.159,202.076,60.711z M36.836,224.728 c-4.896,64.26,29.988,136.476,101.592,134.64c3.672,0,6.12-3.06,6.732-6.732c0.612-6.731,1.836-13.464,2.448-19.584 c12.24,10.404,25.704,19.584,39.168,29.377c-15.3,18.972-31.824,36.72-54.468,47.123c0-6.731,0-12.852,0-19.584 c0-1.836-0.612-3.672-1.836-4.283c2.448-2.448,1.836-7.956-2.448-8.568c-40.392-8.568-74.664-23.868-95.472-61.812 c-19.584-35.496-18.36-79.561-9.792-117.504C39.284,121.911,94.364,48.471,172.7,31.947c0,0.612,0.612,1.836,1.224,3.06 c4.284,5.508,6.732,12.24,11.016,17.748c2.448,3.672,5.508,6.732,8.568,9.792C115.784,81.519,43.568,143.331,36.836,224.728z"/> <path d="M297.548,31.947c-3.06-9.792-6.731-19.584-10.404-28.764c-1.836-3.672-7.344-4.284-10.403-1.224 c-15.912,16.524-28.152,36.108-41.616,54.468c-1.224,1.836-1.224,4.896,0,6.732c11.016,15.3,23.868,28.152,39.168,39.168 c3.672,2.448,8.568-0.612,9.792-4.284c2.448-6.732,3.672-13.464,4.284-20.196c64.26,18.36,87.516,80.172,81.396,143.208 c-3.06,30.6-14.688,61.199-34.271,84.455c-22.032,26.316-44.676,25.704-75.276,30.601c-1.836,0.612-3.06,1.836-3.672,3.672 c-2.448,0.612-4.896,2.448-5.508,6.12c-0.612,9.792,0,19.584,0.612,29.376c0,0.612,0,1.836,0.611,2.448 c-4.284,1.224-4.896,9.18,0,9.792C440.756,419.955,490.329,27.051,297.548,31.947z M262.052,376.503 c0-0.611,0.612-1.224,0.612-2.447c0.612-8.568,0.612-17.748,0.612-26.929c25.704,7.956,56.304-9.18,74.663-25.704 c25.704-23.867,38.557-60.588,44.064-94.248c11.016-69.156-18.36-149.939-95.472-160.344h-0.612 c-3.672-3.672-11.628-1.836-11.628,4.896c0,4.896-0.612,9.18-1.224,12.852c-10.404-7.956-26.929-22.644-23.868-26.316 c9.792-13.464,19.584-27.54,30.6-40.392c3.061,6.12,6.12,12.24,9.18,18.36c0.612,1.224,1.225,1.836,1.837,2.448 c0,3.672,1.836,7.344,6.731,7.344c89.353-2.448,111.996,95.472,105.264,167.688C395.468,293.883,347.733,375.279,262.052,376.503z "/> </g> </g> </g>
</svg>